<?xml version="1.0" standalone="no"?>
<!DOCTYPE svg PUBLIC "-//W3C//DTD SVG 20010904//EN"
 "http://www.w3.org/TR/2001/REC-SVG-20010904/DTD/svg10.dtd">
<svg version="1.0" xmlns="http://www.w3.org/2000/svg"
 width="648.706804pt" height="255.767481pt" viewBox="0 0 648.706804 255.767481"
 preserveAspectRatio="xMidYMid meet">

<rect x="0" y="0" width="648.706804" height="255.767481" fill="white"/>
<g transform="translate(-93.293196,526.000000) scale(0.100000,-0.100000)"
fill="#000000" stroke="none">
<path d="M7360 5245 c0 -8 4 -15 10 -15 5 0 7 7 4 15 -4 8 -8 15 -10 15 -2 0
-4 -7 -4 -15z"/>
<path d="M7392 5198 c5 -15 28 -23 28 -10 0 5 -7 13 -16 16 -10 4 -14 1 -12
-6z"/>
<path d="M3100 5123 c-14 -5 -97 -39 -170 -71 -58 -25 -129 -81 -145 -116 -9
-18 -45 -61 -80 -95 -36 -35 -65 -67 -65 -72 0 -4 -20 -22 -44 -38 -24 -17
-49 -44 -56 -63 -8 -18 -39 -60 -70 -94 -31 -33 -64 -77 -73 -97 -18 -37 -72
-97 -87 -97 -5 0 -14 -17 -20 -37 -21 -69 -39 -98 -95 -153 -30 -29 -55 -59
-55 -66 0 -12 -45 -64 -55 -64 -3 0 -31 -16 -61 -35 -30 -19 -57 -35 -60 -35
-3 0 -24 -15 -47 -34 -23 -19 -60 -41 -82 -50 -48 -20 -95 -63 -95 -87 0 -10
-20 -34 -45 -54 -25 -21 -54 -52 -65 -70 -12 -19 -34 -40 -50 -47 -17 -7 -30
-20 -30 -29 0 -19 -35 -55 -118 -124 -34 -27 -61 -58 -61 -67 -1 -10 -19 -37
-41 -59 -22 -23 -40 -45 -40 -48 0 -4 -35 -39 -79 -78 -43 -40 -84 -85 -91
-102 -6 -17 -20 -33 -29 -36 -29 -9 -87 -69 -109 -110 -32 -64 -55 -152 -48
-189 11 -56 37 -80 105 -95 78 -17 105 -10 121 31 19 49 60 88 90 88 19 0 41
17 83 63 32 34 61 65 65 69 105 96 157 149 173 175 12 19 35 39 52 47 41 17
277 253 277 276 0 5 14 17 30 25 17 9 42 29 57 45 28 32 53 39 53 15 0 -8 8
-19 19 -24 17 -10 27 -40 35 -112 1 -14 10 -37 19 -50 10 -13 17 -27 17 -31 0
-10 116 -119 149 -139 74 -45 502 -43 542 2 9 10 47 34 85 53 51 27 71 33 81
24 15 -12 23 -4 64 59 15 24 21 49 20 93 0 33 -2 64 -5 69 -18 29 -239 5 -285
-30 -14 -12 -40 -19 -65 -19 -23 0 -52 -7 -64 -16 -19 -13 -40 -15 -115 -10
-51 3 -107 10 -124 17 -43 15 -73 64 -72 120 1 24 -4 67 -9 94 -14 63 -15 192
-3 200 6 3 4 19 -5 40 -8 19 -14 38 -14 42 0 5 23 39 50 77 28 38 50 74 50 80
0 7 16 27 35 46 19 19 35 40 35 47 0 8 11 18 24 22 15 6 25 20 29 41 7 33 104
158 123 159 14 1 44 45 44 63 0 14 48 72 66 79 5 2 32 33 61 69 67 84 108 123
161 150 23 12 42 27 42 34 0 13 81 56 106 56 20 0 76 -61 70 -77 -3 -6 1 -16
8 -22 37 -31 20 -160 -28 -208 -15 -14 -29 -38 -33 -52 -11 -46 -46 -81 -111
-113 -54 -27 -68 -39 -86 -76 l-21 -45 29 -21 c17 -11 40 -32 53 -45 20 -21
28 -23 80 -16 61 7 133 45 133 69 0 8 26 31 59 50 32 20 67 48 76 64 10 15 24
31 32 35 7 4 13 12 13 17 0 5 19 49 42 97 l42 88 3 138 c3 136 2 138 -22 161
-14 13 -25 27 -25 31 0 4 -16 27 -35 51 -19 23 -35 47 -35 52 0 13 -54 58 -93
78 -29 15 -156 26 -187 17z"/>
<path d="M4565 5021 c-119 -26 -157 -39 -245 -86 -25 -13 -52 -24 -61 -24 -9
-1 -19 -8 -23 -16 -3 -8 -38 -31 -78 -50 -93 -45 -120 -61 -133 -78 -5 -7 -37
-33 -70 -57 -66 -48 -174 -158 -175 -177 0 -8 -13 -13 -29 -13 -17 0 -50 -13
-74 -30 -25 -16 -54 -30 -66 -30 -11 0 -28 -12 -38 -27 -10 -15 -30 -40 -45
-56 -51 -56 -65 -195 -26 -253 20 -30 26 -32 102 -37 106 -8 126 -3 126 34 0
21 6 32 23 39 27 11 57 35 57 44 0 4 26 33 58 65 31 32 64 67 73 77 22 27 68
64 77 64 5 0 24 -18 43 -41 18 -22 35 -42 37 -44 2 -2 -3 -29 -11 -62 -8 -32
-23 -92 -32 -133 -21 -90 -30 -109 -62 -135 -22 -18 -23 -23 -13 -47 11 -22 9
-34 -14 -81 -14 -31 -26 -65 -26 -77 0 -32 -68 -107 -126 -140 -46 -26 -56
-28 -89 -19 -46 13 -118 -4 -146 -34 -22 -24 -25 -70 -6 -89 8 -7 19 -30 26
-51 7 -20 19 -40 27 -45 8 -4 29 -32 48 -61 54 -83 103 -131 134 -131 15 0 59
-7 97 -16 116 -28 207 -16 275 36 21 16 61 32 100 40 36 7 74 21 85 30 11 10
37 25 58 35 21 10 54 37 74 61 19 24 42 44 50 44 8 0 31 11 51 25 20 14 41 25
46 25 5 0 18 9 30 20 12 12 71 62 131 112 61 50 115 98 120 107 28 47 83 104
113 117 18 7 32 19 31 26 -4 30 2 49 20 67 26 26 50 78 58 124 3 22 16 58 29
81 41 72 55 109 55 145 0 65 5 117 14 131 18 29 0 159 -28 197 -5 7 -6 22 -2
34 4 11 1 48 -6 81 -11 47 -19 62 -36 69 -13 5 -23 13 -23 18 0 17 -102 121
-119 121 -9 0 -26 7 -37 15 -10 8 -29 15 -42 15 -12 0 -34 7 -47 16 -14 9 -72
22 -133 30 -128 16 -109 16 -207 -5z m255 -222 c0 -5 12 -15 28 -21 27 -12 72
-44 103 -73 9 -8 22 -41 29 -73 7 -31 17 -66 23 -77 12 -23 10 -170 -3 -230
-5 -22 -18 -58 -30 -80 -11 -21 -20 -46 -20 -53 0 -8 -11 -27 -25 -44 -14 -16
-25 -38 -25 -49 0 -10 -8 -27 -18 -37 -34 -34 -52 -66 -52 -95 0 -17 -6 -30
-17 -34 -24 -8 -83 -64 -83 -78 0 -6 -9 -18 -19 -27 -10 -9 -23 -22 -27 -30
-5 -8 -56 -51 -114 -96 -58 -45 -119 -92 -135 -106 -17 -13 -48 -31 -69 -40
-22 -9 -65 -33 -95 -53 -31 -21 -87 -48 -126 -60 -70 -23 -169 -31 -179 -14
-12 19 7 41 43 51 28 7 41 19 59 52 12 24 22 48 22 53 0 6 16 24 36 40 28 24
38 41 45 80 5 27 27 86 49 131 47 95 82 201 86 263 1 23 9 62 17 85 8 22 18
70 21 106 5 53 3 70 -11 90 -10 14 -27 48 -38 75 -15 38 -29 55 -58 70 -20 11
-37 23 -37 27 0 18 74 88 92 88 12 0 22 9 25 21 7 25 114 79 157 79 16 0 37 7
47 16 27 25 88 43 149 45 30 1 69 4 85 8 34 8 65 3 65 -10z"/>
<path d="M6871 4949 c-24 -5 -54 -17 -65 -28 -12 -11 -42 -27 -66 -36 -24 -9
-54 -24 -65 -35 -11 -10 -38 -27 -60 -37 -22 -10 -49 -26 -60 -36 -68 -59
-105 -87 -145 -107 -48 -24 -110 -71 -110 -82 0 -17 -100 -107 -148 -133 -29
-15 -75 -52 -103 -82 -27 -29 -57 -53 -65 -53 -25 0 -54 -20 -54 -37 0 -20
-134 -162 -175 -185 -53 -30 -97 -19 -76 19 28 50 64 139 65 160 1 12 16 42
34 65 52 69 102 149 102 165 0 16 36 87 57 113 27 34 63 158 63 219 0 62 0 62
-37 77 -39 17 -42 16 -111 -26 -18 -11 -37 -18 -42 -15 -31 19 -65 -39 -74
-130 -8 -68 -27 -105 -57 -105 -17 0 -20 -4 -14 -28 6 -28 -23 -94 -67 -151
-10 -13 -18 -32 -18 -42 0 -20 -31 -79 -61 -118 -11 -13 -19 -34 -19 -47 0
-30 -16 -72 -35 -90 -9 -9 -15 -34 -15 -58 0 -33 -7 -52 -30 -81 -16 -21 -30
-48 -30 -60 0 -12 -16 -49 -35 -81 -19 -32 -35 -66 -35 -76 0 -10 -7 -21 -15
-24 -10 -4 -15 -20 -15 -50 0 -29 -7 -55 -20 -72 -11 -15 -33 -69 -50 -121
-30 -93 -31 -135 -6 -156 7 -5 15 -17 18 -27 8 -19 67 -31 123 -24 33 5 49 16
92 63 29 32 53 62 53 68 0 5 36 48 81 95 44 47 87 99 96 115 9 17 22 34 29 38
8 4 14 14 14 22 0 8 15 21 34 30 18 9 44 27 57 41 12 13 28 24 35 24 27 0 61
23 78 51 11 19 30 32 59 40 67 18 70 12 73 -140 2 -73 8 -139 13 -145 5 -6 13
-35 17 -64 5 -37 13 -57 28 -67 11 -9 32 -31 46 -51 17 -25 43 -44 84 -61 52
-22 68 -24 152 -19 100 6 141 21 222 83 24 18 50 33 58 33 41 0 136 69 206
149 8 9 29 28 46 44 22 18 32 36 32 55 0 29 29 63 63 75 10 4 17 17 17 32 0
15 4 35 10 45 8 15 4 25 -21 50 -37 37 -54 34 -119 -20 -25 -21 -59 -40 -76
-44 -17 -4 -60 -34 -100 -71 -39 -37 -97 -79 -134 -97 -35 -17 -71 -39 -80
-49 -8 -10 -33 -21 -56 -25 -36 -5 -45 -2 -77 26 -28 25 -37 40 -37 65 0 17
-5 46 -11 63 -8 23 -7 37 4 59 11 21 16 76 19 208 l4 179 28 7 c15 4 49 27 76
51 67 60 78 68 90 68 6 0 16 13 21 29 8 22 19 31 43 35 18 4 44 18 57 32 13
14 36 32 51 40 15 8 29 22 32 32 6 18 125 102 145 102 6 0 18 14 26 30 9 17
26 35 38 41 13 6 35 30 50 53 33 52 38 130 10 153 -61 48 -91 56 -162 42z"/>
</g>
</svg>
